<?xml version="1.0" standalone="no"?>
<!DOCTYPE svg PUBLIC "-//W3C//DTD SVG 20010904//EN"
 "http://www.w3.org/TR/2001/REC-SVG-20010904/DTD/svg10.dtd">
<svg version="1.0" xmlns="http://www.w3.org/2000/svg"
 width="784.000000pt" height="784.000000pt" viewBox="0 0 784.000000 784.000000"
 preserveAspectRatio="xMidYMid meet">
<metadata>
Created by potrace 1.14, written by Peter Selinger 2001-2017
</metadata>
<g transform="translate(0.000000,784.000000) scale(0.100000,-0.100000)"
fill="#000000" stroke="none">
<path d="M3283 7464 l-648 -372 -3 -100 -3 -100 -329 -191 c-181 -105 -331
-191 -334 -191 -2 0 -35 18 -74 40 -38 22 -75 40 -82 40 -12 0 -1245 -704
-1267 -724 -9 -8 -12 -192 -14 -746 l-2 -735 91 -54 92 -53 0 -372 0 -372 -87
-50 -88 -50 -2 -739 -3 -740 318 -184 c174 -102 451 -263 614 -358 163 -95
308 -178 322 -184 21 -10 35 -5 114 40 l90 52 319 -185 318 -184 3 -98 3 -99
647 -376 647 -375 650 372 650 373 5 101 5 102 312 180 312 180 86 -51 86 -51
642 369 642 368 3 741 2 741 -85 48 -85 48 2 380 3 379 80 46 80 46 3 740 2
740 -641 372 -641 373 -71 -42 c-40 -23 -76 -42 -82 -42 -5 0 -154 84 -330
186 l-320 185 -3 98 -3 99 -407 235 c-223 129 -515 298 -648 376 l-243 141
-648 -373z m2115 -1056 l1402 -811 0 -1677 0 -1677 -602 -349 c-608 -351
-1951 -1128 -2172 -1255 l-119 -69 -231 133 c-127 74 -706 408 -1286 742 -580
335 -1127 650 -1215 701 l-160 92 -3 1680 -2 1680 292 169 c160 92 812 468
1447 835 l1156 666 45 -25 c25 -13 676 -389 1448 -835z"/>
<path d="M3462 6483 c-243 -142 -439 -260 -434 -264 14 -14 867 -502 877 -502
7 0 869 495 883 508 1 1 -188 111 -420 245 -233 134 -432 249 -443 256 -18 12
-63 -12 -463 -243z"/>
<path d="M4670 5459 c-399 -238 -736 -436 -750 -441 -22 -9 -109 37 -770 408
-409 229 -749 417 -756 417 -15 0 -614 -355 -614 -364 0 -4 480 -276 1066
-604 832 -467 1070 -596 1083 -589 9 6 485 289 1059 629 573 341 1042 622
1042 625 -1 6 -615 350 -626 350 -5 0 -335 -194 -734 -431z"/>
<path d="M5745 4637 c-335 -199 -814 -484 -1064 -632 l-454 -270 7 -500 c4
-275 11 -833 16 -1239 6 -407 11 -741 13 -742 1 -2 141 79 311 179 l308 182
-9 760 c-4 418 -8 815 -8 883 l0 123 755 449 755 449 0 51 c-1 27 -2 190 -3
360 -1 171 -5 310 -9 310 -5 0 -282 -163 -618 -363z"/>
<path d="M1460 4567 c0 -325 1 -355 18 -369 9 -8 346 -198 747 -423 402 -224
735 -412 741 -416 8 -7 13 -231 19 -767 4 -416 10 -809 14 -872 l6 -114 309
-174 c169 -95 311 -171 313 -168 5 4 -6 918 -23 2052 l-6 412 -1064 596 c-585
328 -1066 596 -1069 596 -3 0 -5 -159 -5 -353z"/>
<path d="M5932 3282 l-433 -257 7 -510 c3 -280 8 -511 9 -513 1 -2 199 113
438 255 l436 258 0 295 c1 332 -9 730 -18 730 -3 -1 -201 -117 -439 -258z"/>
<path d="M1487 3022 c3 -240 8 -466 11 -502 l7 -64 415 -233 c228 -128 418
-233 423 -233 8 0 7 824 -2 925 l-6 69 -380 213 c-209 118 -401 225 -426 238
l-46 24 4 -437z"/>
</g>
</svg>
